<svg xmlns="http://www.w3.org/2000/svg" width="24" height="24" viewBox="0 0 24 24">
    <defs>
        <style>
            .cls-1{fill:#a2a7ba}
        </style>
    </defs>
    <path id="Trazado_6914" d="M56.991 157.414a4.229 4.229 0 1 1 4.229-4.229 4.234 4.234 0 0 1-4.229 4.229zm0-7.458a3.229 3.229 0 1 0 3.229 3.229 3.233 3.233 0 0 0-3.229-3.229zM57 144a12 12 0 1 0 12 12 12.014 12.014 0 0 0-12-12zm-7.029 20.454a.532.532 0 0 0 .033-.048 7.58 7.58 0 0 1 13.996.033c0 .01.012.018.018.029a10.976 10.976 0 0 1-14.042-.013zm14.812-.688a8.563 8.563 0 0 0-15.575-.01 11 11 0 1 1 15.575.01z" class="cls-1" data-name="Trazado 6914" transform="translate(-45 -144)"/>
</svg>
