<svg xmlns="http://www.w3.org/2000/svg" id="prefix__ic_foundsout_24" width="24.026" height="24" viewBox="0 0 24.026 24">
    <defs>
            <style>
              .prefix__cls-2{fill:#c0dbf3}
        </style>
    </defs>
    <path id="prefix__Rectángulo_1142" d="M0 0H24V24H0z" data-name="Rectángulo 1142" style="fill:none"/>
    <g id="prefix__Grupo_1892" data-name="Grupo 1892" transform="translate(0 4)">
        <path id="prefix__Trazado_6856" d="M170 641v-10a1 1 0 0 1 1-1h18a1 1 0 0 1 1 1v5h2v-5a3 3 0 0 0-3-3h-18a3 3 0 0 0-3 3v10a3 3 0 0 0 3 3h13v-2h-13a1 1 0 0 1-1-1z" class="prefix__cls-2" data-name="Trazado 6856" transform="translate(-168 -628)"/>
        <path id="prefix__Trazado_6857" d="M180.329 639.711v-.75a2.175 2.175 0 0 0 .62-.152 1.494 1.494 0 0 0 .474-.311 1.339 1.339 0 0 0 .3-.463 1.623 1.623 0 0 0 .107-.609 1.59 1.59 0 0 0-.107-.61 1.376 1.376 0 0 0-.311-.461 1.964 1.964 0 0 0-.5-.347 4.784 4.784 0 0 0-.66-.27 4.1 4.1 0 0 1-.514-.209 1.5 1.5 0 0 1-.347-.232.775.775 0 0 1-.2-.277.9.9 0 0 1-.063-.348.917.917 0 0 1 .246-.664.963.963 0 0 1 .715-.246.9.9 0 0 1 .41.09.869.869 0 0 1 .3.248 1.12 1.12 0 0 1 .187.379 1.707 1.707 0 0 1 .065.482h.719a2 2 0 0 0-.368-1.26 1.5 1.5 0 0 0-1.019-.553v-.859h-.583v.859a1.894 1.894 0 0 0-.576.161 1.359 1.359 0 0 0-.723.781 1.671 1.671 0 0 0-.1.594 1.549 1.549 0 0 0 .114.613 1.453 1.453 0 0 0 .322.471 2.039 2.039 0 0 0 .5.353 4.265 4.265 0 0 0 .656.262 2.2 2.2 0 0 1 .838.441.807.807 0 0 1 .26.61.949.949 0 0 1-.059.384.8.8 0 0 1-.217.289.943.943 0 0 1-.344.182 1.533 1.533 0 0 1-.457.063 1.458 1.458 0 0 1-.394-.055.936.936 0 0 1-.35-.184.948.948 0 0 1-.252-.345 1.339 1.339 0 0 1-.1-.545h-.718a2.017 2.017 0 0 0 .129.757 1.506 1.506 0 0 0 .343.526 1.485 1.485 0 0 0 .494.318 2.216 2.216 0 0 0 .584.141v.746z" class="prefix__cls-2" data-name="Trazado 6857" transform="translate(-168 -628)"/>
        <path id="prefix__Trazado_6858" d="M191.87 640.544l-2.63-2.631-.752.752 1.723 1.722h-4.691v1.063h4.693l-1.724 1.723.752.751 2.629-2.629a.53.53 0 0 0 0-.751z" class="prefix__cls-2" data-name="Trazado 6858" transform="translate(-168 -628)"/>
    </g>
</svg>
