<svg xmlns="http://www.w3.org/2000/svg" id="prefix__ic_question_24" width="24" height="24" viewBox="0 0 24 24">
    <path id="prefix__Rectángulo_1134" d="M0 0H24V24H0z" data-name="Rectángulo 1134" style="fill:none"/>
    <path id="prefix__Trazado_2306" d="M420.528 298.646c.859-.7 1.18-1.117 1.18-1.859a1.6 1.6 0 0 0-1.758-1.523 1.93 1.93 0 0 0-1.953 1.3c-.18.391-.336.524-.625.524a.524.524 0 0 1-.539-.578 2.378 2.378 0 0 1 .882-1.688 3.324 3.324 0 0 1 2.227-.711c1.859 0 3.141 1.071 3.141 2.672a3.112 3.112 0 0 1-1.524 2.547c-.945.766-1.133 1.031-1.219 1.859-.062.446-.265.68-.664.68a.63.63 0 0 1-.648-.687c0-1.051.281-1.543 1.5-2.536zm-.813 4.735a.887.887 0 1 1-.9.89.891.891 0 0 1 .9-.89zM420 311a11 11 0 1 1 11-11 11.013 11.013 0 0 1-11 11zm0-20a9 9 0 1 0 9 9 9.011 9.011 0 0 0-9-9z" data-name="Trazado 2306" transform="translate(-408 -288)" style="fill:#c0dbf3"/>
</svg>
