<svg xmlns="http://www.w3.org/2000/svg" width="24" height="24" viewBox="0 0 24 24">
    <defs>
        <style>
            .prefix__cls-1{fill:#c0dbf3}
        </style>
    </defs>
    <g id="prefix__Grupo_4113" data-name="Grupo 4113" transform="translate(-42 -528)">
        <g id="prefix__Grupo_4113-2" data-name="Grupo 4113" transform="translate(-24.494 461.679)">
            <path id="prefix__Trazado_7015" d="M68.494 88.321l1.4-4.969A9.985 9.985 0 1 1 73.624 87zm5.393-3.134l.306.186a8.28 8.28 0 1 0-2.669-2.606l.206.32-.807 2.862z" class="prefix__cls-1" data-name="Trazado 7015"/>
            <path id="prefix__Trazado_7016" d="M149.84 152.862l-.647-.035a.782.782 0 0 0-.557.191 2.955 2.955 0 0 0-.97 1.489 4.519 4.519 0 0 0 1.045 3.538 10.508 10.508 0 0 0 5.663 4.124 2.755 2.755 0 0 0 2.337-.29 2.094 2.094 0 0 0 .909-1.329l.1-.484a.336.336 0 0 0-.188-.376l-2.188-1.01a.335.335 0 0 0-.406.1l-.859 1.116a.246.246 0 0 1-.276.082 6.73 6.73 0 0 1-3.64-3.121.249.249 0 0 1 .031-.278l.821-.952a.336.336 0 0 0 .055-.352l-.943-2.211a.336.336 0 0 0-.287-.202z" class="prefix__cls-1" data-name="Trazado 7016" transform="translate(-74.136 -79.217)"/>
        </g>
        <path id="prefix__Rectángulo_1228" fill="none" d="M0 0H24V24H0z" data-name="Rectángulo 1228" transform="translate(42 528)"/>
    </g>
</svg>
