<svg xmlns="http://www.w3.org/2000/svg" id="logo_white" width="71.462" height="34.689" viewBox="0 0 71.462 34.689">
    <defs>
        <style>
            .cls-1{fill:#fff}
        </style>
    </defs>
    <path id="Trazado_6842" d="M64.046 48.174a.98.98 0 0 1 .135.582v2.1a.879.879 0 0 1-.147.609c-.086.123-.274.168-.574.168h-9.023a2.386 2.386 0 0 0-1.8.56 2.308 2.308 0 0 0-.541 1.654v3.946h10.116a.713.713 0 0 1 .562.162 1.062 1.062 0 0 1 .119.623V60.5a1.128 1.128 0 0 1-.119.572c-.082.146-.254.206-.562.206H52.1v7.806a2.316 2.316 0 0 1-2.242 2.621h-1.081a.973.973 0 0 1-.577-.141A.656.656 0 0 1 48 71V54.08a8.917 8.917 0 0 1 .29-2.288 4.895 4.895 0 0 1 .986-1.957 5.1 5.1 0 0 1 1.851-1.343A6.882 6.882 0 0 1 53.984 48h9.476c.32 0 .512.029.586.174M72.2 59.353c2.366 0 3.824 1.244 3.824 4.754 0 3.593-1.54 4.809-3.687 4.809a9.941 9.941 0 0 1-2.7-.387V59.74a9.738 9.738 0 0 1 2.558-.387m-2.558 11.939a13.415 13.415 0 0 0 3.274.388c4.346 0 6.437-3.427 6.437-7.545 0-4.228-1.9-7.545-6.685-7.545a14.836 14.836 0 0 0-5.8 1.05.613.613 0 0 0-.441.663v18.24c0 .387.165.469.523.469h2.174c.413 0 .523-.054.523-.469zm20.837-2.625a9.61 9.61 0 0 1-2.861.443c-1.761 0-2.916-.553-2.916-2.129 0-2.211 1.925-2.376 3.136-2.376h2.64zM93.2 70.74a.891.891 0 0 0 .523-.913v-8.29c0-3.206-1.733-4.974-5.529-4.974a15.486 15.486 0 0 0-5.117.8c-.275.11-.33.277-.248.581l.385 1.575c.082.332.247.387.633.277a15.5 15.5 0 0 1 3.824-.553c2.366 0 2.833 1.022 2.833 2.433v.469H87.42c-4.374 0-6 2.377-6 4.946 0 2.515 1.321 4.616 6.162 4.616a14.4 14.4 0 0 0 5.618-.967m10.337 3.039l5.5-16.525c.083-.222-.027-.36-.275-.36h-2.5c-.386 0-.467.11-.551.387l-2.036 6.273-1.54 5.058h-.165l-1.431-5-1.87-6.356c-.082-.277-.193-.36-.578-.36h-2.53c-.248 0-.386.11-.3.387l4.126 12.684c.331 1.051.716 1.134 1.375 1.134h.66l-.577 1.74a2.177 2.177 0 0 1-2.421 1.742 5.272 5.272 0 0 1-1.348-.194c-.33-.055-.467-.055-.55.3l-.386 1.685c-.082.332 0 .443.386.525a8.613 8.613 0 0 0 2.421.332c2.311 0 3.741-.94 4.594-3.482zM113.367 48h-2.34a6.671 6.671 0 0 1 4 6.114v4.355a3.08 3.08 0 0 0 3.07 3.084h.826a.541.541 0 0 0 .539-.541v-6.889A6.116 6.116 0 0 0 113.367 48zm-4.97 0h-1.43a1 1 0 0 0-1 1v.37a3.08 3.08 0 0 0 3.07 3.083h4.313a1.656 1.656 0 0 1 .981.321A6.1 6.1 0 0 0 108.4 48zm6.357 6.129z" class="cls-1" data-name="Trazado 6842" transform="translate(-48 -48)"/>
</svg>
