<svg xmlns="http://www.w3.org/2000/svg" width="24" height="24" viewBox="0 0 24 24">
    <defs>
        <style>
            .cls-1{fill:none}.cls-2{fill:#f8f8f8}
        </style>
    </defs>
    <g id="Grupo_1590" data-name="Grupo 1590" transform="translate(-96 -600)">
        <path id="Rectángulo_1129" d="M0 0h24v24H0z" class="cls-1" data-name="Rectángulo 1129" transform="translate(96 600)"/>
        <path id="Trazado_6837" d="M178.748 586.092h-7.056a.692.692 0 0 1-.692-.692v-5.707a.692.692 0 0 1 .692-.692h7.056a.692.692 0 0 1 .693.692v5.707a.693.693 0 0 1-.693.692zm-6.363-1.385h5.671v-4.322h-5.671zm15.879 1.385H181.3a.693.693 0 0 1-.693-.693v-5.707a.693.693 0 0 1 .693-.692h6.967a.692.692 0 0 1 .692.692v5.708a.692.692 0 0 1-.695.692zm-6.275-1.385h5.582v-4.322h-5.582zM178.748 597h-7.056a.692.692 0 0 1-.692-.692v-5.8a.692.692 0 0 1 .692-.692h7.056a.692.692 0 0 1 .693.692v5.8a.692.692 0 0 1-.693.692zm-6.363-1.385h5.671V591.2h-5.671zm8.967-7.615a.692.692 0 0 0-.692-.692h-8.968a.692.692 0 1 0 0 1.384h8.968a.692.692 0 0 0 .692-.692zm7.648 8.263v-8.308a.692.692 0 0 0-1.385 0v7.615h-3.769a.693.693 0 0 0 0 1.385h4.462a.692.692 0 0 0 .692-.692zm-2.55-5.752a.692.692 0 0 0-.692-.692H181.3a.693.693 0 1 0 0 1.385h4.461a.692.692 0 0 0 .689-.693zm-4.461 5.752v-2.5h3.769a.692.692 0 1 0 0-1.384H181.3a.693.693 0 0 0-.693.692v3.2a.692.692 0 0 0 1.385 0zm4.426-7.654a1.054 1.054 0 0 0 .194-.3.924.924 0 0 0 .074-.351.968.968 0 0 0-.268-.655 1.039 1.039 0 0 0-.3-.194.916.916 0 0 0-.7 0 .849.849 0 0 0-.3.194.967.967 0 0 0-.267.655.9.9 0 0 0 .065.351 1.081 1.081 0 0 0 .2.3.918.918 0 0 0 .656.268.93.93 0 0 0 .646-.268zm-2.557 0a.906.906 0 0 0 .2-.3.9.9 0 0 0-.2-1.006.891.891 0 0 0-.295-.194.933.933 0 0 0-1.006.194.949.949 0 0 0-.2 1.006 1.085 1.085 0 0 0 .2.3.922.922 0 0 0 .295.194.819.819 0 0 0 .36.074.909.909 0 0 0 .646-.268z" class="cls-2" data-name="Trazado 6837" transform="translate(-72 24)"/>
    </g>
</svg>
