<svg xmlns="http://www.w3.org/2000/svg" width="32" height="32" viewBox="0 0 32 32">
    <path id="prefix__Trazado_6914" d="M60.988 161.885a5.639 5.639 0 1 1 5.639-5.639 5.645 5.645 0 0 1-5.639 5.639zm0-9.944a4.305 4.305 0 1 0 4.305 4.305 4.311 4.311 0 0 0-4.305-4.305zM61 144a16 16 0 1 0 16 16 16.019 16.019 0 0 0-16-16zm-9.372 27.272a.711.711 0 0 0 .043-.063 10.107 10.107 0 0 1 18.656.043c.006.014.017.025.023.038a14.635 14.635 0 0 1-18.723-.018zm19.749-.917a11.417 11.417 0 0 0-20.767-.013 14.667 14.667 0 1 1 20.767.013z" data-name="Trazado 6914" transform="translate(-45 -144)" style="fill:#f8f8f8"/>
</svg>
